<svg xmlns="http://www.w3.org/2000/svg" width="12.161" height="15.988" viewBox="0 0 12.161 15.988"><defs><style>.a{fill:#05172c;}</style></defs><path class="a" d="M107.754,7.819c1.778,0,3.219-1.75,3.219-3.91S110.5,0,107.754,0s-3.219,1.75-3.219,3.91S105.976,7.819,107.754,7.819Z" transform="translate(-101.674)"/><path class="a" d="M41.9,300.44c0-.132,0-.037,0,0Z" transform="translate(-41.895 -286.651)"/><path class="a" d="M308.085,301.606c0-.036,0-.25,0,0Z" transform="translate(-295.925 -287.714)"/><path class="a" d="M54.06,183.252c-.06-3.761-.551-4.833-4.31-5.512a2.641,2.641,0,0,1-3.525,0c-3.718.671-4.239,1.727-4.308,5.39-.006.3-.008.315-.009.28,0,.065,0,.185,0,.4,0,0,.895,1.8,6.079,1.8s6.079-1.8,6.079-1.8c0-.135,0-.229,0-.292A2.422,2.422,0,0,1,54.06,183.252Z" transform="translate(-41.907 -169.621)"/></svg>