<svg xmlns="http://www.w3.org/2000/svg" width="18.188" height="15.986" viewBox="0 0 18.188 15.986"><defs><style>.a{fill:#05172c;}</style></defs><path class="a" d="M5.9,10.657h9.627a.531.531,0,0,0,.512-.387l2.132-7.46a.532.532,0,0,0-.512-.679H4.667L4.286.417A.533.533,0,0,0,3.765,0H.533a.533.533,0,1,0,0,1.066h2.8L5.262,9.724A1.6,1.6,0,0,0,5.9,12.788h9.627a.533.533,0,0,0,0-1.066H5.9a.533.533,0,1,1,0-1.066Zm0,0"/><path class="a" d="M151,361.6a1.6,1.6,0,1,0,1.6-1.6A1.6,1.6,0,0,0,151,361.6Zm0,0" transform="translate(-145.636 -347.215)"/><path class="a" d="M362,361.6a1.6,1.6,0,1,0,1.6-1.6A1.6,1.6,0,0,0,362,361.6Zm0,0" transform="translate(-349.144 -347.215)"/></svg>